<svg width="8" height="16" viewBox="0 0 8 16" fill="none" xmlns="http://www.w3.org/2000/svg">
<path fill-rule="evenodd" clip-rule="evenodd" d="M0.266555 15.766C0.561095 16.078 1.03745 16.078 1.33126 15.766L7.55879 9.15515C7.69819 9.00942 7.80919 8.83404 7.88504 8.63965C7.96089 8.44526 8 8.23594 8 8.0244C8 7.81287 7.96089 7.60354 7.88504 7.40916C7.80919 7.21477 7.69819 7.03938 7.55879 6.89366L1.28617 0.233995C1.14381 0.0851607 0.955292 0.00150591 0.758893 2.01341e-05C0.562494 -0.00146564 0.372944 0.079329 0.228737 0.225996C0.1573 0.298424 0.100141 0.386213 0.060799 0.483926C0.0214574 0.581639 0.000771093 0.687195 2.11489e-05 0.794059C-0.000728795 0.900922 0.0184736 1.00682 0.0564391 1.10519C0.0944047 1.20356 0.150325 1.29231 0.220738 1.36594L5.96173 7.45923C6.03148 7.5321 6.08703 7.61982 6.12499 7.71705C6.16295 7.81428 6.18252 7.91899 6.18252 8.0248C6.18252 8.13062 6.16295 8.23533 6.12499 8.33256C6.08703 8.42979 6.03148 8.51751 5.96173 8.59037L0.266555 14.6357C0.196818 14.7085 0.141283 14.7961 0.103333 14.8933C0.0653829 14.9904 0.0458117 15.0951 0.0458117 15.2008C0.0458117 15.3066 0.0653829 15.4112 0.103333 15.5084C0.141283 15.6056 0.196818 15.6932 0.266555 15.766Z" fill="black"/>
</svg>
