<svg width="37" height="37" viewBox="0 0 37 37" fill="none" xmlns="http://www.w3.org/2000/svg">
<path d="M18.5 37C28.7173 37 37 28.7173 37 18.5C37 8.28273 28.7173 0 18.5 0C8.28273 0 0 8.28273 0 18.5C0 28.7173 8.28273 37 18.5 37Z" fill="#F5B300"/>
<path d="M13.4811 9.04578C14.123 9.22086 14.765 9.33758 15.407 9.51266C16.0489 9.68774 16.6909 9.80446 17.3328 9.97954C17.5079 10.0379 17.5663 9.97954 17.6246 9.80446C17.8581 8.81235 18.0915 7.87859 18.3249 6.88648C18.3833 6.7114 18.4417 6.65304 18.6167 6.7114C19.2003 6.88648 19.7256 7.0032 20.3092 7.11992C20.4842 7.17828 20.4842 7.23664 20.4259 7.35335C20.1924 8.28711 19.959 9.27922 19.7256 10.213C19.7256 10.2713 19.7256 10.3297 19.6672 10.4464C20.1341 10.5631 20.6593 10.6799 21.1262 10.7966C21.1846 10.7966 21.2429 10.6799 21.3013 10.6215C21.4764 9.86282 21.6514 9.1625 21.8849 8.40383L22.06 7.70351C22.06 7.58679 22.1183 7.52843 22.235 7.58679C22.8186 7.76187 23.4022 7.87859 24.0442 8.05367C24.1025 8.05367 24.1025 8.11203 24.1609 8.11203C23.9858 8.8707 23.8107 9.57102 23.6357 10.2713C23.5773 10.5631 23.5189 10.8549 23.4022 11.1467C23.3439 11.3218 23.4022 11.3802 23.5773 11.4385L25.5032 12.3139C26.0868 12.6641 26.612 13.131 27.0205 13.7146C27.5458 14.5899 27.6041 15.5237 27.3707 16.4575C27.1956 17.0994 26.9622 17.683 26.4953 18.1499C26.1451 18.5 25.6783 18.7335 25.2114 18.9086C25.153 18.9086 25.0947 18.9669 24.9779 18.9669C25.2114 19.142 25.4448 19.2587 25.6783 19.4338C26.3786 19.959 26.8454 20.601 27.0789 21.418C27.1956 22.06 27.1372 22.7603 26.9622 23.4023C26.7287 24.2193 26.4369 24.9196 25.9117 25.5616C25.2697 26.3202 24.4527 26.7287 23.5189 26.8455C22.2934 27.0205 21.1262 26.9038 19.959 26.7287C19.7839 26.6704 19.6672 26.7288 19.6088 26.9038C19.3754 27.8376 19.142 28.8297 18.9085 29.7634C18.8502 29.9969 18.8502 30.0552 18.5584 29.9385C18.0331 29.8218 17.4495 29.6467 16.9243 29.53C16.7492 29.4717 16.7492 29.4133 16.8076 29.2966C17.041 28.3045 17.2745 27.3123 17.5663 26.3786C17.5663 26.2619 17.6246 26.2035 17.5079 26.1452C17.041 26.0284 16.5741 25.9117 16.0489 25.795C15.9322 26.3202 15.7571 26.8455 15.6404 27.3707C15.5237 27.8959 15.3486 28.4212 15.2319 28.9464C15.1735 29.0631 15.1735 29.1215 14.9984 29.0631C14.4148 28.8881 13.8312 28.7713 13.2477 28.6546C13.0726 28.5963 13.0726 28.5379 13.1309 28.4212C13.3644 27.4291 13.5978 26.437 13.8896 25.5032C13.8896 25.4448 13.948 25.3865 13.948 25.2698C12.6057 24.9196 11.2634 24.5694 9.86279 24.2193C9.97951 23.9858 10.0379 23.8108 10.1546 23.5773C10.388 23.0521 10.6215 22.5269 10.7965 22.06C10.8549 21.8849 10.9133 21.8849 11.0883 21.8849C11.4969 22.0016 11.9637 22.1183 12.3723 22.1767C12.8391 22.2934 13.1893 22.06 13.2477 21.6515C14.0063 18.6751 14.765 15.6988 15.4653 12.6641C15.582 12.1972 15.2902 11.672 14.765 11.4969C14.2398 11.3218 13.7145 11.2051 13.2477 11.0884C13.1309 11.0884 13.0726 11.03 13.1309 10.9133C13.306 10.2713 13.4811 9.57102 13.6562 8.92906C13.4227 9.10414 13.4227 9.10414 13.4811 9.04578ZM16.4574 23.4606C16.5158 23.4606 16.5741 23.519 16.5741 23.519C17.5079 23.7524 18.5 24.0442 19.4921 24.1026C20.1924 24.1609 20.8344 24.1609 21.4764 23.9275C22.5852 23.5773 23.0521 22.1183 22.4101 21.1846C22.1183 20.7177 21.6514 20.4259 21.1846 20.1341C20.1341 19.5505 18.9085 19.3171 17.7413 19.0836C17.5663 19.0253 17.5663 19.0836 17.5079 19.2587C17.3912 19.8423 17.2161 20.3676 17.0994 20.9511C16.8659 21.7682 16.6909 22.5852 16.4574 23.4606ZM21.3596 17.5079C21.4764 17.5079 21.7682 17.4496 22.0016 17.3912C23.1104 17.1578 23.694 15.8739 23.1104 14.8817C22.8186 14.3565 22.2934 14.0064 21.7682 13.7729C20.9511 13.4228 20.1341 13.2477 19.2587 13.0142C19.0836 12.9559 19.0253 13.0142 18.9669 13.1893C18.6751 14.4149 18.3833 15.5821 18.0331 16.8076C17.9748 16.9243 18.0331 16.9827 18.1499 17.0411C18.3833 17.0994 18.5584 17.1578 18.7918 17.2161C19.6672 17.3328 20.4259 17.5079 21.3596 17.5079Z" fill="white"/>
</svg>
