<svg width="20" height="20" viewBox="0 0 20 20" fill="none" xmlns="http://www.w3.org/2000/svg">
<path d="M0.493896 6.66667C0.493896 5.74619 1.15718 5 1.97538 5H17.7778C18.596 5 19.2593 5.74619 19.2593 6.66667V18.3333C19.2593 19.2538 18.596 20 17.7778 20H2.46921C1.37827 20 0.493896 19.0051 0.493896 17.7778V6.66667Z" fill="#021024" fill-opacity="0.1"/>
<path fill-rule="evenodd" clip-rule="evenodd" d="M2.46921 3.33331C1.37827 3.33331 0.493896 4.32823 0.493896 5.55554V6.66665V7.2222V16.6666C0.493896 17.894 1.37827 18.8889 2.46921 18.8889H17.284C17.8295 18.8889 18.2717 18.3914 18.2717 17.7778V6.66665C18.2717 6.05301 17.8295 5.55554 17.284 5.55554V4.44442C17.284 3.83079 16.8418 3.33331 16.2964 3.33331H2.46921Z" fill="#6156E0"/>
<path fill-rule="evenodd" clip-rule="evenodd" d="M0 5.55561C0 4.0215 1.10548 2.77783 2.46914 2.77783H16.2963C17.1145 2.77783 17.7778 3.52403 17.7778 4.4445V5.09489C18.3532 5.32369 18.7654 5.94105 18.7654 6.66672V17.7778C18.7654 18.6983 18.1021 19.4445 17.284 19.4445H2.46914C1.10548 19.4445 0 18.2008 0 16.6667V5.55561ZM17.284 5.55561C17.8294 5.55561 18.2716 6.05308 18.2716 6.66672V17.7778C18.2716 18.3915 17.8294 18.8889 17.284 18.8889H2.46914C1.3782 18.8889 0.493827 17.894 0.493827 16.6667V5.55561C0.493827 4.3283 1.3782 3.33339 2.46914 3.33339H16.2963C16.8418 3.33339 17.284 3.83086 17.284 4.4445V5.55561Z" fill="#22179B"/>
<path fill-rule="evenodd" clip-rule="evenodd" d="M0.987636 6.11108C1.12401 6.11108 1.23455 6.23545 1.23455 6.38886V16.9444C1.23455 17.0978 1.12401 17.2222 0.987636 17.2222C0.851266 17.2222 0.740723 17.0978 0.740723 16.9444V6.38886C0.740723 6.23545 0.851266 6.11108 0.987636 6.11108Z" fill="#B982FF"/>
<path fill-rule="evenodd" clip-rule="evenodd" d="M0.987636 6.11108C1.12401 6.11108 1.23455 6.23545 1.23455 6.38886V10.5555C1.23455 10.7089 1.12401 10.8333 0.987636 10.8333C0.851266 10.8333 0.740723 10.7089 0.740723 10.5555V6.38886C0.740723 6.23545 0.851266 6.11108 0.987636 6.11108Z" fill="#829DFF"/>
<path fill-rule="evenodd" clip-rule="evenodd" d="M2.22217 7.77778C2.22217 7.62436 2.33271 7.5 2.46908 7.5H6.91353C7.0499 7.5 7.16044 7.62436 7.16044 7.77778C7.16044 7.93119 7.0499 8.05556 6.91353 8.05556H2.46908C2.33271 8.05556 2.22217 7.93119 2.22217 7.77778ZM2.22217 10C2.22217 9.84658 2.33271 9.72222 2.46908 9.72222H4.93822C5.07459 9.72222 5.18513 9.84658 5.18513 10C5.18513 10.1534 5.07459 10.2778 4.93822 10.2778H2.46908C2.33271 10.2778 2.22217 10.1534 2.22217 10ZM2.22217 16.6667C2.22217 16.5133 2.33271 16.3889 2.46908 16.3889H4.93822C5.07459 16.3889 5.18513 16.5133 5.18513 16.6667C5.18513 16.8201 5.07459 16.9444 4.93822 16.9444H2.46908C2.33271 16.9444 2.22217 16.8201 2.22217 16.6667ZM7.65427 12.2222C7.65427 12.0688 7.76481 11.9444 7.90118 11.9444H9.38266C9.4314 11.9444 9.47906 11.9607 9.51963 11.9911L11.0011 13.1022C11.1146 13.1873 11.1452 13.3598 11.0696 13.4874C10.9939 13.6151 10.8406 13.6496 10.7272 13.5645L9.3079 12.5H7.90118C7.76481 12.5 7.65427 12.3756 7.65427 12.2222ZM2.22217 14.4444C2.22217 14.291 2.33271 14.1667 2.46908 14.1667H6.91353C6.96498 14.1667 7.01516 14.1848 7.05703 14.2184L8.78543 15.6073C8.89642 15.6965 8.92209 15.8699 8.84284 15.9948C8.76358 16.1196 8.60938 16.1485 8.49842 16.0594L6.83439 14.7222H2.46908C2.33271 14.7222 2.22217 14.5979 2.22217 14.4444ZM8.75187 9.76886C8.79244 9.73844 8.84009 9.72222 8.88883 9.72222H11.6049C11.7413 9.72222 11.8518 9.84658 11.8518 10C11.8518 10.1534 11.7413 10.2778 11.6049 10.2778H8.9636L6.06283 12.4534C6.02227 12.4838 5.97461 12.5 5.92587 12.5H2.46908C2.33271 12.5 2.22217 12.3756 2.22217 12.2222C2.22217 12.0688 2.33271 11.9444 2.46908 11.9444H5.85111L8.75187 9.76886Z" fill="#52D5FF"/>
<path fill-rule="evenodd" clip-rule="evenodd" d="M12.0988 10.8334C12.5079 10.8334 12.8396 10.4603 12.8396 10.0001C12.8396 9.53982 12.5079 9.16674 12.0988 9.16674C11.6897 9.16674 11.3581 9.53982 11.3581 10.0001C11.3581 10.4603 11.6897 10.8334 12.0988 10.8334ZM12.0988 10.2779C12.2352 10.2779 12.3457 10.1535 12.3457 10.0001C12.3457 9.84666 12.2352 9.7223 12.0988 9.7223C11.9624 9.7223 11.8519 9.84666 11.8519 10.0001C11.8519 10.1535 11.9624 10.2779 12.0988 10.2779ZM11.3581 14.4445C11.7672 14.4445 12.0988 14.0714 12.0988 13.6112C12.0988 13.1509 11.7672 12.7779 11.3581 12.7779C10.949 12.7779 10.6173 13.1509 10.6173 13.6112C10.6173 14.0714 10.949 14.4445 11.3581 14.4445ZM11.3581 13.889C11.4944 13.889 11.605 13.7646 11.605 13.6112C11.605 13.4578 11.4944 13.3334 11.3581 13.3334C11.2217 13.3334 11.1112 13.4578 11.1112 13.6112C11.1112 13.7646 11.2217 13.889 11.3581 13.889ZM9.13585 16.9445C9.54496 16.9445 9.87659 16.5714 9.87659 16.1112C9.87659 15.6509 9.54496 15.2779 9.13585 15.2779C8.72674 15.2779 8.39511 15.6509 8.39511 16.1112C8.39511 16.5714 8.72674 16.9445 9.13585 16.9445ZM9.13585 16.389C9.27222 16.389 9.38276 16.2646 9.38276 16.1112C9.38276 15.9578 9.27222 15.8334 9.13585 15.8334C8.99948 15.8334 8.88894 15.9578 8.88894 16.1112C8.88894 16.2646 8.99948 16.389 9.13585 16.389ZM5.43215 10.8334C5.84126 10.8334 6.17289 10.4603 6.17289 10.0001C6.17289 9.53982 5.84126 9.16674 5.43215 9.16674C5.02304 9.16674 4.69141 9.53982 4.69141 10.0001C4.69141 10.4603 5.02304 10.8334 5.43215 10.8334ZM5.43215 10.2779C5.56852 10.2779 5.67906 10.1535 5.67906 10.0001C5.67906 9.84666 5.56852 9.7223 5.43215 9.7223C5.29578 9.7223 5.18523 9.84666 5.18523 10.0001C5.18523 10.1535 5.29578 10.2779 5.43215 10.2779ZM5.43215 17.5001C5.84126 17.5001 6.17289 17.127 6.17289 16.6667C6.17289 16.2065 5.84126 15.8334 5.43215 15.8334C5.02304 15.8334 4.69141 16.2065 4.69141 16.6667C4.69141 17.127 5.02304 17.5001 5.43215 17.5001ZM5.43215 16.9445C5.56852 16.9445 5.67906 16.8202 5.67906 16.6667C5.67906 16.5133 5.56852 16.389 5.43215 16.389C5.29578 16.389 5.18523 16.5133 5.18523 16.6667C5.18523 16.8202 5.29578 16.9445 5.43215 16.9445ZM7.40746 8.61119C7.81657 8.61119 8.1482 8.2381 8.1482 7.77785C8.1482 7.3176 7.81657 6.94452 7.40746 6.94452C6.99834 6.94452 6.66672 7.3176 6.66672 7.77785C6.66672 8.2381 6.99834 8.61119 7.40746 8.61119ZM7.40746 8.05563C7.54383 8.05563 7.65437 7.93127 7.65437 7.77785C7.65437 7.62444 7.54383 7.50007 7.40746 7.50007C7.27109 7.50007 7.16054 7.62444 7.16054 7.77785C7.16054 7.93127 7.27109 8.05563 7.40746 8.05563Z" fill="#52D5FF"/>
<path d="M16.2963 3.33331H2.22219C1.81307 3.33331 1.48145 3.70642 1.48145 4.16665C1.48145 4.6269 1.8131 4.99998 2.22219 4.99998H17.2839V4.44442C17.2839 3.83079 16.8417 3.33331 16.2963 3.33331Z" fill="#4B41BE"/>
<path d="M17.2839 5.55563V4.44452H1.97527C1.70253 4.44452 1.48145 4.69324 1.48145 5.00007C1.48145 5.30691 1.70253 5.55563 1.97527 5.55563H17.2839Z" fill="#382EA7"/>
<path fill-rule="evenodd" clip-rule="evenodd" d="M2.22212 3.33339C1.81301 3.33339 1.48138 3.70647 1.48138 4.16672C1.48138 4.62697 1.81301 5.00005 2.22212 5.00005H17.5308C17.6671 5.00005 17.7777 5.12442 17.7777 5.27783C17.7777 5.43125 17.6671 5.55561 17.5308 5.55561H2.22212C1.54029 5.55561 0.987549 4.93378 0.987549 4.16672C0.987549 3.39967 1.54029 2.77783 2.22212 2.77783H6.41965C6.55602 2.77783 6.66656 2.90219 6.66656 3.05561C6.66656 3.20903 6.55602 3.33339 6.41965 3.33339H2.22212Z" fill="#22179B"/>
<path d="M13.8271 16.1111C13.8271 16.2645 13.7166 16.3889 13.5802 16.3889C13.4438 16.3889 13.3333 16.2645 13.3333 16.1111C13.3333 15.9577 13.4438 15.8334 13.5802 15.8334C13.7166 15.8334 13.8271 15.9577 13.8271 16.1111ZM14.8148 15.8334C14.8148 15.9868 14.7042 16.1111 14.5679 16.1111C14.4315 16.1111 14.321 15.9868 14.321 15.8334C14.321 15.6799 14.4315 15.5556 14.5679 15.5556C14.7042 15.5556 14.8148 15.6799 14.8148 15.8334ZM15.0617 16.8056C15.0617 17.0357 14.8959 17.2222 14.6913 17.2222C14.4868 17.2222 14.321 17.0357 14.321 16.8056C14.321 16.5755 14.4868 16.3889 14.6913 16.3889C14.8959 16.3889 15.0617 16.5755 15.0617 16.8056ZM17.5308 17.3611C17.5308 17.5912 17.365 17.7778 17.1605 17.7778C16.9559 17.7778 16.7901 17.5912 16.7901 17.3611C16.7901 17.131 16.9559 16.9445 17.1605 16.9445C17.365 16.9445 17.5308 17.131 17.5308 17.3611ZM14.074 17.3611C14.074 17.5912 13.9082 17.7778 13.7037 17.7778C13.4991 17.7778 13.3333 17.5912 13.3333 17.3611C13.3333 17.131 13.4991 16.9445 13.7037 16.9445C13.9082 16.9445 14.074 17.131 14.074 17.3611ZM12.5926 16.9445C12.5926 17.0979 12.482 17.2222 12.3457 17.2222C12.2093 17.2222 12.0987 17.0979 12.0987 16.9445C12.0987 16.791 12.2093 16.6667 12.3457 16.6667C12.482 16.6667 12.5926 16.791 12.5926 16.9445ZM11.6049 17.7778C11.6049 17.9312 11.4944 18.0556 11.358 18.0556C11.2216 18.0556 11.1111 17.9312 11.1111 17.7778C11.1111 17.6244 11.2216 17.5 11.358 17.5C11.4944 17.5 11.6049 17.6244 11.6049 17.7778ZM17.5308 14.4445C17.5308 14.5979 17.4203 14.7222 17.2839 14.7222C17.1476 14.7222 17.037 14.5979 17.037 14.4445C17.037 14.291 17.1476 14.1667 17.2839 14.1667C17.4203 14.1667 17.5308 14.291 17.5308 14.4445ZM15.5555 14.7222C15.5555 14.8757 15.445 15 15.3086 15C15.1722 15 15.0617 14.8757 15.0617 14.7222C15.0617 14.5688 15.1722 14.4445 15.3086 14.4445C15.445 14.4445 15.5555 14.5688 15.5555 14.7222ZM14.5679 18.0556C14.5679 18.209 14.4573 18.3334 14.321 18.3334C14.1846 18.3334 14.074 18.209 14.074 18.0556C14.074 17.9022 14.1846 17.7778 14.321 17.7778C14.4573 17.7778 14.5679 17.9022 14.5679 18.0556ZM12.8395 18.0556C12.8395 18.209 12.7289 18.3334 12.5926 18.3334C12.4562 18.3334 12.3457 18.209 12.3457 18.0556C12.3457 17.9022 12.4562 17.7778 12.5926 17.7778C12.7289 17.7778 12.8395 17.9022 12.8395 18.0556ZM15.8024 16.1111C15.8024 16.2645 15.6919 16.3889 15.5555 16.3889C15.4192 16.3889 15.3086 16.2645 15.3086 16.1111C15.3086 15.9577 15.4192 15.8334 15.5555 15.8334C15.6919 15.8334 15.8024 15.9577 15.8024 16.1111ZM16.5432 16.6667C16.5432 16.8201 16.4326 16.9445 16.2963 16.9445C16.1599 16.9445 16.0494 16.8201 16.0494 16.6667C16.0494 16.5133 16.1599 16.3889 16.2963 16.3889C16.4326 16.3889 16.5432 16.5133 16.5432 16.6667ZM17.7778 15.8334C17.7778 15.9868 17.6672 16.1111 17.5308 16.1111C17.3945 16.1111 17.2839 15.9868 17.2839 15.8334C17.2839 15.6799 17.3945 15.5556 17.5308 15.5556C17.6672 15.5556 17.7778 15.6799 17.7778 15.8334ZM16.7901 15.4167C16.7901 15.6468 16.6243 15.8334 16.4197 15.8334C16.2152 15.8334 16.0494 15.6468 16.0494 15.4167C16.0494 15.1866 16.2152 15 16.4197 15C16.6243 15 16.7901 15.1866 16.7901 15.4167ZM15.5555 17.5C15.5555 17.6534 15.445 17.7778 15.3086 17.7778C15.1722 17.7778 15.0617 17.6534 15.0617 17.5C15.0617 17.3466 15.1722 17.2222 15.3086 17.2222C15.445 17.2222 15.5555 17.3466 15.5555 17.5ZM16.2963 18.0556C16.2963 18.209 16.1857 18.3334 16.0494 18.3334C15.913 18.3334 15.8024 18.209 15.8024 18.0556C15.8024 17.9022 15.913 17.7778 16.0494 17.7778C16.1857 17.7778 16.2963 17.9022 16.2963 18.0556Z" fill="#4438CE"/>
<path d="M13.3333 12.5C13.3333 11.7329 13.886 11.1111 14.5678 11.1111H18.7654C19.0381 11.1111 19.2592 11.3598 19.2592 11.6666V13.3333C19.2592 13.6401 19.0381 13.8889 18.7654 13.8889H14.5678C13.886 13.8889 13.3333 13.267 13.3333 12.5Z" fill="#8176FF"/>
<path fill-rule="evenodd" clip-rule="evenodd" d="M14.568 10.5555H18.7655C19.311 10.5555 19.7532 11.053 19.7532 11.6666V13.3333C19.7532 13.9469 19.311 14.4444 18.7655 14.4444H14.568C13.6134 14.4444 12.8396 13.5738 12.8396 12.4999C12.8396 11.426 13.6134 10.5555 14.568 10.5555ZM14.568 11.111C13.8862 11.111 13.3334 11.7329 13.3334 12.4999C13.3334 13.267 13.8862 13.8888 14.568 13.8888H18.7655C19.0383 13.8888 19.2594 13.6401 19.2594 13.3333V11.6666C19.2594 11.3598 19.0383 11.111 18.7655 11.111H14.568Z" fill="#22179B"/>
<path fill-rule="evenodd" clip-rule="evenodd" d="M13.3333 12.5C13.3333 11.7329 13.886 11.1111 14.5678 11.1111H18.5184C18.6548 11.1111 18.7654 11.2354 18.7654 11.3889C18.7654 11.5423 18.6548 11.6666 18.5184 11.6666H14.5678C14.1587 11.6666 13.8271 12.0397 13.8271 12.5H13.3333Z" fill="#D7A5FF"/>
<path fill-rule="evenodd" clip-rule="evenodd" d="M13.3333 12.5C13.3333 11.7329 13.886 11.1111 14.5678 11.1111H14.8147C14.9511 11.1111 15.0616 11.2354 15.0616 11.3889C15.0616 11.5423 14.9511 11.6666 14.8147 11.6666H14.5678C14.1587 11.6666 13.8271 12.0397 13.8271 12.5V12.7778C13.8271 12.9312 13.7165 13.0555 13.5802 13.0555C13.4438 13.0555 13.3333 12.9312 13.3333 12.7778V12.5Z" fill="#C4E2FF"/>
<path d="M15.3086 12.5C15.3086 12.9603 14.977 13.3334 14.5679 13.3334C14.1588 13.3334 13.8271 12.9603 13.8271 12.5C13.8271 12.0398 14.1588 11.6667 14.5679 11.6667C14.977 11.6667 15.3086 12.0398 15.3086 12.5Z" fill="#22179B"/>
<path fill-rule="evenodd" clip-rule="evenodd" d="M1.97534 3.61109C1.97534 3.45767 2.08589 3.33331 2.22226 3.33331H15.8025C15.9389 3.33331 16.0494 3.45767 16.0494 3.61109C16.0494 3.76451 15.9389 3.88887 15.8025 3.88887H2.22226C2.08589 3.88887 1.97534 3.76451 1.97534 3.61109Z" fill="#6156E0"/>
<path fill-rule="evenodd" clip-rule="evenodd" d="M2.22217 5.83326C2.22217 5.67984 2.33271 5.55548 2.46908 5.55548H16.7901C16.9264 5.55548 17.037 5.67984 17.037 5.83326C17.037 5.98668 16.9264 6.11104 16.7901 6.11104H2.46908C2.33271 6.11104 2.22217 5.98668 2.22217 5.83326Z" fill="#D7A5FF"/>
<path fill-rule="evenodd" clip-rule="evenodd" d="M0.984163 4.76179C1.1011 4.68287 1.25278 4.72551 1.32293 4.85707C1.48535 5.16162 1.66579 5.32951 1.84834 5.42535C2.03466 5.52318 2.2415 5.55554 2.46923 5.55554H5.92602C6.06239 5.55554 6.17293 5.6799 6.17293 5.83332C6.17293 5.98673 6.06239 6.1111 5.92602 6.1111H2.46923C2.20313 6.1111 1.91614 6.07401 1.6395 5.92879C1.3591 5.78157 1.10742 5.53279 0.899472 5.1429C0.829324 5.01135 0.86725 4.84073 0.984163 4.76179Z" fill="#C3E2FF"/>
<path d="M20 5.27783C20 8.03925 18.0101 10.2778 15.5555 10.2778C13.1009 10.2778 11.1111 8.03925 11.1111 5.27783C11.1111 2.51642 13.1009 0.277832 15.5555 0.277832C18.0101 0.277832 20 2.51642 20 5.27783Z" fill="#021024" fill-opacity="0.1"/>
<path d="M19.2591 4.99993C19.2591 7.45454 17.4904 9.44437 15.3085 9.44437C13.1267 9.44437 11.3579 7.45454 11.3579 4.99993C11.3579 2.54531 13.1267 0.555481 15.3085 0.555481C17.4904 0.555481 19.2591 2.54531 19.2591 4.99993Z" fill="#FFCF23"/>
<path fill-rule="evenodd" clip-rule="evenodd" d="M19.7531 5C19.7531 7.76142 17.7633 10 15.3087 10C12.8541 10 10.8643 7.76142 10.8643 5C10.8643 2.23858 12.8541 0 15.3087 0C17.7633 0 19.7531 2.23858 19.7531 5ZM15.3087 9.44444C17.4906 9.44444 19.2593 7.45461 19.2593 5C19.2593 2.54539 17.4906 0.555556 15.3087 0.555556C13.1268 0.555556 11.3581 2.54539 11.3581 5C11.3581 7.45461 13.1268 9.44444 15.3087 9.44444Z" fill="#B96F00"/>
<path fill-rule="evenodd" clip-rule="evenodd" d="M13.8273 3.05556C13.5545 3.05556 13.3334 3.30428 13.3334 3.61111C13.3334 3.91794 13.5545 4.16667 13.8273 4.16667C14.1 4.16667 14.3211 3.91794 14.3211 3.61111C14.3211 3.30428 14.1 3.05556 13.8273 3.05556ZM12.8396 3.61111C12.8396 2.99747 13.2818 2.5 13.8273 2.5C14.3727 2.5 14.8149 2.99747 14.8149 3.61111C14.8149 4.22475 14.3727 4.72222 13.8273 4.72222C13.2818 4.72222 12.8396 4.22475 12.8396 3.61111ZM16.7902 5.83333C16.5175 5.83333 16.2964 6.08206 16.2964 6.38889C16.2964 6.69572 16.5175 6.94444 16.7902 6.94444C17.063 6.94444 17.284 6.69572 17.284 6.38889C17.284 6.08206 17.063 5.83333 16.7902 5.83333ZM15.8026 6.38889C15.8026 5.77525 16.2448 5.27778 16.7902 5.27778C17.3357 5.27778 17.7779 5.77525 17.7779 6.38889C17.7779 7.00253 17.3357 7.5 16.7902 7.5C16.2448 7.5 15.8026 7.00253 15.8026 6.38889Z" fill="#B96F00"/>
<path fill-rule="evenodd" clip-rule="evenodd" d="M15.3087 8.88883C17.2178 8.88883 18.7655 7.14772 18.7655 4.99995C18.7655 4.84653 18.876 4.72217 19.0124 4.72217C19.1488 4.72217 19.2593 4.84653 19.2593 4.99995C19.2593 7.45456 17.4906 9.44439 15.3087 9.44439C15.1723 9.44439 15.0618 9.32003 15.0618 9.16661C15.0618 9.0132 15.1723 8.88883 15.3087 8.88883Z" fill="#E7B400"/>
<path fill-rule="evenodd" clip-rule="evenodd" d="M15.3085 1.11104C13.3994 1.11104 11.8517 2.85215 11.8517 4.99993C11.8517 5.15334 11.7412 5.2777 11.6048 5.2777C11.4685 5.2777 11.3579 5.15334 11.3579 4.99993C11.3579 2.54531 13.1267 0.555481 15.3085 0.555481C15.4449 0.555481 15.5554 0.679842 15.5554 0.833259C15.5554 0.986675 15.4449 1.11104 15.3085 1.11104Z" fill="#FFE792"/>
<path fill-rule="evenodd" clip-rule="evenodd" d="M13.2839 1.49986C13.3658 1.62253 13.3439 1.79667 13.2348 1.88881C12.973 2.11011 12.7399 2.37225 12.5432 2.66681C12.4613 2.78944 12.3065 2.81417 12.1975 2.722C12.0885 2.62986 12.0665 2.45572 12.1484 2.33308C12.3731 1.99667 12.6392 1.69733 12.9382 1.44461C13.0473 1.35247 13.202 1.37722 13.2839 1.49986Z" fill="white"/>
<path fill-rule="evenodd" clip-rule="evenodd" d="M16.9799 3.43326C17.0672 3.55112 17.053 3.72629 16.9483 3.82448L13.9853 6.60226C13.8805 6.70048 13.7249 6.68457 13.6376 6.5667C13.5503 6.44884 13.5644 6.2737 13.6692 6.17548L16.6321 3.3977C16.7369 3.29948 16.8926 3.31543 16.9799 3.43326Z" fill="#B96F00"/>
</svg>
