<svg width="200" height="200" viewBox="0 0 200 200" fill="none" xmlns="http://www.w3.org/2000/svg">
<path d="M158.433 164.785V175.676C141.694 188.602 121.142 195.614 99.994 195.614C78.8457 195.614 58.294 188.602 41.5554 175.676V164.785C41.5554 149.285 47.7123 134.42 58.6717 123.46C69.6311 112.5 84.4951 106.342 99.994 106.342C115.493 106.342 130.357 112.5 141.316 123.46C152.276 134.42 158.433 149.285 158.433 164.785ZM121.085 42.465C125.941 47.3005 128.97 53.671 129.655 60.4901C130.339 67.3093 128.638 74.1549 124.84 79.8596C121.042 85.5644 115.383 89.7751 108.828 91.7737C102.273 93.7723 95.2278 93.4351 88.8936 90.8195C82.5594 88.204 77.3284 83.4721 74.0927 77.4307C70.857 71.3893 69.817 64.4125 71.1498 57.6899C72.4827 50.9673 76.106 44.9152 81.402 40.5657C86.6979 36.2161 93.3385 33.8383 100.191 33.8378C104.071 33.8268 107.914 34.5833 111.5 36.064C115.086 37.5446 118.343 39.7201 121.085 42.465Z" fill="#D9D9D9"/>
<path d="M99.9939 4.38599C152.797 4.38599 195.601 47.1931 195.601 100C195.615 114.619 192.271 129.045 185.826 142.166C179.382 155.287 170.01 166.752 158.432 175.676V164.785C158.432 149.285 152.276 134.42 141.316 123.46C130.357 112.5 115.493 106.342 99.9939 106.342C84.495 106.342 69.6309 112.5 58.6715 123.46C47.7122 134.42 41.5553 149.285 41.5553 164.785V175.676C29.978 166.752 20.6057 155.287 14.1613 142.166C7.7169 129.045 4.3728 114.619 4.38701 100C4.38701 47.1931 47.1908 4.38599 99.9939 4.38599ZM129.711 63.3598C129.697 56.5479 127.322 49.9515 122.991 44.6937C118.66 39.436 112.641 35.842 105.958 34.5237C99.2754 33.2053 92.3425 34.2441 86.3395 37.4632C80.3366 40.6823 75.6349 45.8827 73.035 52.1789C70.435 58.475 70.0975 65.4778 72.0799 71.9949C74.0623 78.512 78.2421 84.1404 83.9077 87.922C89.5732 91.7035 96.3741 93.4043 103.153 92.7349C109.931 92.0654 116.268 89.067 121.084 84.2502C123.829 81.509 126.004 78.252 127.484 74.6667C128.965 71.0815 129.721 67.2388 129.711 63.3598Z" fill="#BFBFBF"/>
<path d="M99.9939 0C82.9441 0.00649315 66.1789 4.37113 51.2901 12.6795C36.4013 20.9879 23.883 32.9643 14.9238 47.4715C5.96455 61.9788 0.861781 78.5355 0.0999292 95.5695C-0.661923 112.604 2.94243 129.55 10.5708 144.799C17.33 158.212 26.9984 169.946 38.8704 179.145C56.3773 192.666 77.8725 200 99.9919 200C122.111 200 143.607 192.666 161.113 179.145C172.987 169.947 182.657 158.212 189.417 144.799C197.051 129.55 200.66 112.603 199.901 95.5667C199.142 78.5304 194.039 61.9712 185.079 47.4622C176.119 32.9532 163.598 20.9762 148.706 12.6692C133.814 4.36224 117.046 0.00104863 99.9939 0ZM45.9409 173.49V164.785C45.9409 150.449 51.6358 136.699 61.7727 126.561C71.9096 116.424 85.6582 110.728 99.9939 110.728C114.33 110.728 128.078 116.424 138.215 126.561C148.352 136.699 154.047 150.449 154.047 164.785V173.49C138.38 185.014 119.441 191.229 99.9939 191.229C80.5463 191.229 61.6076 185.014 45.9409 173.49ZM162.818 166.144V164.785C162.818 130.141 134.635 101.956 99.9939 101.956C83.332 101.956 67.3527 108.576 55.571 120.359C43.7894 132.142 37.1702 148.122 37.1697 164.785V166.145C28.1658 157.647 21.0002 147.393 16.1159 136.016C11.2316 124.639 8.7324 112.381 8.77267 100C8.77267 49.697 49.6946 8.77195 99.9939 8.77195C150.293 8.77195 191.215 49.697 191.215 100C191.255 112.381 188.756 124.639 183.872 136.016C178.987 147.392 171.822 157.647 162.818 166.144Z" fill="black"/>
<path d="M100.191 29.4519C92.3655 29.4674 84.787 32.1951 78.7461 37.1706C72.7053 42.1462 68.5756 49.0618 67.0602 56.7402C65.5448 64.4185 66.7375 72.3847 70.435 79.2825C74.1326 86.1803 80.1065 91.5831 87.3396 94.5711C94.5727 97.559 102.618 97.9474 110.105 95.67C117.592 93.3926 124.059 88.5903 128.403 82.0808C132.748 75.5712 134.702 67.7569 133.933 59.9683C133.165 52.1797 129.72 44.8984 124.186 39.3642C121.042 36.2063 117.301 33.7041 113.182 32.0026C109.063 30.3011 104.648 29.4341 100.191 29.4519ZM117.982 81.1502C113.864 85.289 108.438 87.8709 102.629 88.4557C96.82 89.0404 90.9881 87.5918 86.1279 84.3569C81.2676 81.1219 77.68 76.301 75.9768 70.7162C74.2736 65.1315 74.5604 59.1288 76.7882 53.7319C79.016 48.335 83.0469 43.8781 88.1934 41.1212C93.3399 38.3644 99.2833 37.4784 105.01 38.6144C110.737 39.7504 115.892 42.8379 119.597 47.3504C123.302 51.863 125.326 57.5211 125.326 63.3598C125.339 66.6636 124.697 69.9373 123.437 72.9911C122.176 76.0449 120.322 78.8182 117.982 81.1502Z" fill="black"/>
</svg>
