<svg width="8" height="4" viewBox="0 0 8 4" fill="none" xmlns="http://www.w3.org/2000/svg">
<path d="M4.351 3.86971C4.356 3.86491 4.358 3.85851 4.363 3.85371L7.85376 0.768022C8.04875 0.594417 8.04875 0.312809 7.85376 0.139204C7.85176 0.137604 7.84976 0.136804 7.84776 0.136004C7.80438 0.093967 7.75005 0.0600165 7.68856 0.0365252C7.62707 0.013034 7.55992 0.000568571 7.49179 0H0.509265C0.439882 0.000896997 0.371591 0.0139722 0.309217 0.0383022C0.246843 0.0626322 0.191907 0.0976236 0.14829 0.140804L0.14629 0.139204C0.0519268 0.226555 0 0.338156 0 0.453613C0 0.569069 0.0519268 0.680671 0.14629 0.768022L3.64505 3.86971C3.68861 3.91056 3.74272 3.94336 3.80366 3.96586C3.8646 3.98835 3.93091 4 3.99802 4C4.06514 4 4.13145 3.98835 4.19239 3.96586C4.25333 3.94336 4.30744 3.91056 4.351 3.86971Z" fill="white"/>
</svg>
