<svg width="21" height="14" viewBox="0 0 21 14" fill="none" xmlns="http://www.w3.org/2000/svg">
<path d="M19.963 6.50229C19.3233 5.39262 15.8047 -0.17568 9.82703 0.00426478C4.29923 0.144222 1.1005 5.00274 0.230845 6.50229C0.143112 6.65426 0.0969238 6.82665 0.0969238 7.00213C0.0969238 7.17762 0.143112 7.35001 0.230845 7.50198C0.860595 8.59165 4.22926 14 10.1169 14H10.3668C15.8946 13.86 19.1033 9.00152 19.963 7.50198C20.0507 7.35001 20.0969 7.17762 20.0969 7.00213C20.0969 6.82665 20.0507 6.65426 19.963 6.50229ZM10.0969 10.5011C9.40496 10.5011 8.72854 10.2959 8.1532 9.91139C7.57786 9.52692 7.12943 8.98046 6.86463 8.34112C6.59983 7.70177 6.53054 6.99825 6.66554 6.31952C6.80053 5.6408 7.13374 5.01735 7.62303 4.52801C8.11232 4.03868 8.73571 3.70544 9.41438 3.57043C10.093 3.43542 10.7965 3.50471 11.4358 3.76954C12.0751 4.03436 12.6215 4.48283 13.0059 5.05823C13.3903 5.63363 13.5955 6.31011 13.5955 7.00213C13.5955 7.93011 13.2269 8.82008 12.5708 9.47625C11.9147 10.1324 11.0248 10.5011 10.0969 10.5011Z" fill="#BFBFBF"/>
</svg>
