<svg width="31" height="31" viewBox="0 0 31 31" fill="none" xmlns="http://www.w3.org/2000/svg">
<path d="M26.75 0.297455H4.25C2.18187 0.297455 0.5 1.97933 0.5 4.04745V26.5475C0.5 28.6156 2.18187 30.2975 4.25 30.2975H26.75C28.8181 30.2975 30.5 28.6156 30.5 26.5475V4.04745C30.5 1.97933 28.8181 0.297455 26.75 0.297455Z" fill="#1976D2"/>
<path fill-rule="evenodd" clip-rule="evenodd" d="M25.8125 15.2975H21.125V11.5475C21.125 10.5125 21.965 10.61 23 10.61H24.875V5.92245H21.125C19.6332 5.92245 18.2024 6.51509 17.1475 7.56998C16.0926 8.62487 15.5 10.0556 15.5 11.5475V15.2975H11.75V19.985H15.5V30.2975H21.125V19.985H23.9375L25.8125 15.2975Z" fill="#FAFAFA"/>
</svg>
