<svg width="31" height="31" viewBox="0 0 31 31" fill="none" xmlns="http://www.w3.org/2000/svg">
<path d="M15.4999 0.297455C11.9382 0.297606 8.49268 1.59719 5.77995 3.96367C3.06722 6.33014 1.26429 9.60909 0.693739 13.2138C0.123192 16.8185 0.822265 20.5138 2.66587 23.6384C4.50948 26.763 7.37732 29.113 10.7562 30.268C11.5062 30.4026 11.7875 29.9412 11.7875 29.5375C11.7875 29.1722 11.7687 27.9611 11.7687 26.6731C7.99999 27.3844 7.02499 25.7312 6.725 24.8661C6.39211 24.0247 5.86442 23.2791 5.18751 22.6937C4.66251 22.4053 3.91252 21.694 5.16874 21.6748C5.64842 21.7282 6.10848 21.8993 6.50994 22.1737C6.91141 22.4481 7.24244 22.8177 7.47499 23.2512C7.68015 23.629 7.95601 23.9617 8.28677 24.2301C8.61753 24.4984 8.99669 24.6972 9.40253 24.8151C9.80836 24.933 10.2329 24.9676 10.6518 24.9169C11.0707 24.8663 11.4757 24.7314 11.8437 24.52C11.9086 23.7381 12.2485 23.0071 12.8 22.463C9.46248 22.0786 5.975 20.752 5.975 14.8695C5.95392 13.341 6.50403 11.8621 7.51249 10.7363C7.05392 9.40782 7.10757 7.94995 7.66249 6.66072C7.66249 6.66072 8.91869 6.257 11.7875 8.23711C14.2419 7.54499 16.833 7.54499 19.2874 8.23711C22.1561 6.23779 23.4124 6.66072 23.4124 6.66072C23.9674 7.94993 24.021 9.40783 23.5624 10.7363C24.5739 11.8602 25.1245 13.3403 25.0999 14.8695C25.0999 20.7713 21.5936 22.0786 18.2562 22.463C18.6141 22.835 18.8898 23.2817 19.0645 23.7726C19.2392 24.2635 19.3089 24.7873 19.2687 25.3082C19.2687 27.3652 19.2499 29.0185 19.2499 29.5376C19.2499 29.9413 19.5311 30.4219 20.2811 30.2681C23.6541 29.1037 26.5137 26.7481 28.3495 23.6219C30.1852 20.4957 30.8776 16.8023 30.3031 13.2011C29.7286 9.5999 27.9246 6.32521 25.2131 3.96161C22.5015 1.59801 19.059 0.299354 15.4999 0.297455Z" fill="black"/>
</svg>
