<svg width="31" height="31" viewBox="0 0 31 31" fill="none" xmlns="http://www.w3.org/2000/svg">
<path d="M7.14863 18.4268L6.10438 22.3252L2.28764 22.4059C1.14699 20.2903 0.5 17.8697 0.5 15.2975C0.5 12.8101 1.10492 10.4645 2.17719 8.39909H2.17801L5.57598 9.02206L7.06449 12.3996C6.75295 13.3079 6.58315 14.2829 6.58315 15.2975C6.58326 16.3985 6.78272 17.4535 7.14863 18.4268Z" fill="#FBBB00"/>
<path d="M30.2379 12.4953C30.4101 13.4027 30.4999 14.3397 30.4999 15.2975C30.4999 16.3714 30.387 17.4189 30.1719 18.4294C29.4417 21.8678 27.5338 24.8703 24.8907 26.995L24.8898 26.9942L20.6099 26.7758L20.0042 22.9944C21.758 21.9659 23.1286 20.3563 23.8506 18.4294H15.8297V12.4953H30.2379Z" fill="#518EF8"/>
<path d="M24.8898 26.9942L24.8906 26.995C22.32 29.0612 19.0546 30.2974 15.5 30.2974C9.7876 30.2974 4.82113 27.1046 2.2876 22.406L7.14859 18.4269C8.41533 21.8076 11.6766 24.2142 15.5 24.2142C17.1433 24.2142 18.683 23.77 20.0041 22.9944L24.8898 26.9942Z" fill="#28B446"/>
<path d="M25.0745 3.75074L20.2151 7.72902C18.8478 6.87437 17.2316 6.38066 15.5 6.38066C11.5901 6.38066 8.26783 8.89767 7.06455 12.3996L2.17801 8.3991H2.17719C4.67363 3.58591 9.70273 0.297455 15.5 0.297455C19.1396 0.297455 22.4766 1.5939 25.0745 3.75074Z" fill="#F14336"/>
</svg>
