<svg width="12" height="12" viewBox="0 0 12 12" fill="none" xmlns="http://www.w3.org/2000/svg">
<path fill-rule="evenodd" clip-rule="evenodd" d="M3.99985 2.91363C3.71701 2.91363 3.43694 2.96638 3.17564 3.06886C2.91433 3.17134 2.6769 3.32155 2.4769 3.51091C2.27691 3.70027 2.11826 3.92508 2.01002 4.17249C1.90179 4.4199 1.84608 4.68508 1.84608 4.95287C1.84608 5.22067 1.90179 5.48584 2.01002 5.73326C2.11826 5.98067 2.27691 6.20547 2.4769 6.39483C2.6769 6.58419 2.91433 6.7344 3.17564 6.83689C3.43694 6.93937 3.71701 6.99211 3.99985 6.99211C4.57107 6.99211 5.11889 6.77727 5.5228 6.39483C5.92671 6.0124 6.15362 5.49371 6.15362 4.95287C6.15362 4.41203 5.92671 3.89334 5.5228 3.51091C5.11889 3.12848 4.57107 2.91363 3.99985 2.91363ZM1.23071 4.95287C1.23071 4.25751 1.52246 3.59062 2.04177 3.09892C2.56109 2.60723 3.26543 2.33099 3.99985 2.33099C4.73427 2.33099 5.43861 2.60723 5.95793 3.09892C6.47724 3.59062 6.76899 4.25751 6.76899 4.95287C6.76899 5.64824 6.47724 6.31512 5.95793 6.80682C5.43861 7.29852 4.73427 7.57475 3.99985 7.57475C3.26543 7.57475 2.56109 7.29852 2.04177 6.80682C1.52246 6.31512 1.23071 5.64824 1.23071 4.95287Z" fill="black"/>
<path fill-rule="evenodd" clip-rule="evenodd" d="M1.09859e-07 10.7792C1.09859e-07 9.77482 0.421413 8.81154 1.17153 8.10131C1.92165 7.39108 2.93903 6.99208 3.99987 6.99208C5.0607 6.99208 6.07808 7.39108 6.8282 8.10131C7.57832 8.81154 7.99973 9.77482 7.99973 10.7792V10.9424C7.99973 11.2354 7.78312 11.4883 7.48036 11.5483L6.40286 11.7633C5.32167 11.9789 4.21586 12.0471 3.11928 11.9684C3.03879 11.9615 2.96442 11.9248 2.91223 11.8664C2.86004 11.808 2.83423 11.7324 2.84037 11.6561C2.84651 11.5798 2.88412 11.5089 2.94506 11.4586C3.006 11.4084 3.08538 11.3828 3.16605 11.3875C4.20478 11.4621 5.25213 11.3974 6.2761 11.1929L7.3536 10.9785C7.36229 10.9769 7.37011 10.9724 7.37572 10.966C7.38133 10.9595 7.38439 10.9513 7.38437 10.943V10.7792C7.38437 9.92935 7.02779 9.11427 6.39307 8.5133C5.75835 7.91234 4.89749 7.57472 3.99987 7.57472C3.10224 7.57472 2.24138 7.91234 1.60666 8.5133C0.971945 9.11427 0.615364 9.92935 0.615364 10.7792V10.9424C0.615364 10.9599 0.627671 10.9744 0.646132 10.9785L1.72363 11.1929C1.76319 11.2008 1.80072 11.216 1.83408 11.2376C1.86744 11.2592 1.89598 11.2868 1.91807 11.3189C1.94015 11.3509 1.95535 11.3868 1.9628 11.4244C1.97025 11.462 1.9698 11.5007 1.96147 11.5381C1.95315 11.5756 1.93712 11.6111 1.91429 11.6427C1.89146 11.6743 1.86229 11.7013 1.82843 11.7222C1.79457 11.7431 1.7567 11.7575 1.71697 11.7646C1.67724 11.7716 1.63643 11.7712 1.59687 11.7633L0.519367 11.5483C0.37247 11.5192 0.240655 11.443 0.146074 11.3326C0.051494 11.2223 -8.68836e-05 11.0845 1.09859e-07 10.9424V10.7792ZM9.23046 0.299295C9.91228 -0.148172 10.8673 -0.0934039 11.4827 0.464183C11.646 0.609893 11.7762 0.78569 11.8651 0.98077C11.9541 1.17585 12 1.38609 12 1.59858C12 1.81107 11.9541 2.02131 11.8651 2.21639C11.7762 2.41148 11.646 2.58727 11.4827 2.73298L9.44337 4.57995C9.38609 4.63194 9.30981 4.66097 9.23046 4.66097C9.15111 4.66097 9.07483 4.63194 9.01754 4.57995L6.98807 2.74056L6.97884 2.7324L7.19114 2.52148L6.97884 2.7324C6.8155 2.58669 6.68534 2.41089 6.59638 2.21581C6.50742 2.02073 6.46153 1.81049 6.46153 1.598C6.46153 1.38551 6.50742 1.17527 6.59638 0.980188C6.68534 0.785107 6.8155 0.609311 6.97884 0.4636C7.59359 -0.0939865 8.54802 -0.148172 9.23046 0.298713V0.299295ZM7.40406 2.31173L7.41144 2.31873L7.41329 2.32047L9.23046 3.96701L11.0569 2.31232C11.4938 1.91612 11.4938 1.28046 11.0569 0.884849C10.6126 0.482827 9.88767 0.482827 9.44337 0.884849C9.38609 0.936839 9.30981 0.965865 9.23046 0.965865C9.15111 0.965865 9.07483 0.936839 9.01754 0.884849C8.57386 0.482827 7.84835 0.482827 7.40406 0.884849C6.96715 1.28046 6.96715 1.91612 7.40406 2.31232V2.31173Z" fill="black"/>
</svg>
