<svg width="24" height="24" viewBox="0 0 24 24" fill="none" xmlns="http://www.w3.org/2000/svg">
<path d="M12 0C9.62663 0 7.30655 0.703788 5.33316 2.02236C3.35977 3.34094 1.8217 5.21508 0.913451 7.4078C0.00519941 9.60051 -0.232441 12.0133 0.230582 14.3411C0.693605 16.6689 1.83649 18.807 3.51472 20.4853C5.19295 22.1635 7.33115 23.3064 9.65892 23.7694C11.9867 24.2324 14.3995 23.9948 16.5922 23.0865C18.7849 22.1783 20.6591 20.6402 21.9776 18.6668C23.2962 16.6934 24 14.3734 24 12C24 10.4241 23.6896 8.8637 23.0866 7.4078C22.4835 5.95189 21.5996 4.62902 20.4853 3.51472C19.371 2.40041 18.0481 1.5165 16.5922 0.913445C15.1363 0.310389 13.5759 0 12 0ZM12 21.6C10.1013 21.6 8.24524 21.037 6.66653 19.9821C5.08782 18.9272 3.85736 17.4279 3.13076 15.6738C2.40416 13.9196 2.21405 11.9893 2.58447 10.1271C2.95488 8.26491 3.8692 6.55436 5.21178 5.21177C6.55436 3.86919 8.26492 2.95488 10.1271 2.58446C11.9894 2.21404 13.9196 2.40415 15.6738 3.13076C17.4279 3.85736 18.9272 5.08781 19.9821 6.66652C21.037 8.24524 21.6 10.1013 21.6 12C21.6 14.5461 20.5886 16.9879 18.7882 18.7882C16.9879 20.5886 14.5461 21.6 12 21.6Z" fill="#1D1CE5"/>
<path d="M11.9998 4.79989C10.8859 4.79989 9.81761 5.24238 9.02996 6.03004C8.2423 6.81769 7.7998 7.88598 7.7998 8.99988C7.7998 9.31814 7.92623 9.62337 8.15128 9.84841C8.37632 10.0735 8.68154 10.1999 8.9998 10.1999C9.31806 10.1999 9.62329 10.0735 9.84833 9.84841C10.0734 9.62337 10.1998 9.31814 10.1998 8.99988C10.1998 8.64388 10.3054 8.29587 10.5032 7.99986C10.7009 7.70385 10.9821 7.47314 11.311 7.3369C11.6399 7.20066 12.0018 7.16502 12.351 7.23447C12.7001 7.30392 13.0209 7.47536 13.2726 7.72709C13.5243 7.97883 13.6958 8.29956 13.7652 8.64872C13.8347 8.99789 13.799 9.35981 13.6628 9.68871C13.5265 10.0176 13.2958 10.2987 12.9998 10.4965C12.7038 10.6943 12.3558 10.7999 11.9998 10.7999C11.6815 10.7999 11.3763 10.9263 11.1513 11.1514C10.9262 11.3764 10.7998 11.6816 10.7998 11.9999V14.3999C10.7998 14.7181 10.9262 15.0234 11.1513 15.2484C11.3763 15.4735 11.6815 15.5999 11.9998 15.5999C12.3181 15.5999 12.6233 15.4735 12.8483 15.2484C13.0734 15.0234 13.1998 14.7181 13.1998 14.3999V13.0079C14.1695 12.7247 15.0042 12.1005 15.55 11.2504C16.0958 10.4003 16.3159 9.38157 16.1697 8.38196C16.0236 7.38236 15.5211 6.46927 14.7548 5.81099C13.9884 5.15271 13.01 4.79362 11.9998 4.79989Z" fill="#1D1CE5"/>
<path d="M11.9998 19.2C12.6625 19.2 13.1998 18.6628 13.1998 18C13.1998 17.3373 12.6625 16.8 11.9998 16.8C11.3371 16.8 10.7998 17.3373 10.7998 18C10.7998 18.6628 11.3371 19.2 11.9998 19.2Z" fill="#1D1CE5"/>
</svg>
