<svg width="24" height="24" viewBox="0 0 24 24" fill="none" xmlns="http://www.w3.org/2000/svg">
<path d="M13.6603 0.00465262C7.64113 -0.181978 2.70987 5.2703 2.70987 12.0023H0.593092C0.0609423 12.0023 -0.19922 12.7222 0.179198 13.1354L3.47853 16.868C3.71504 17.1347 4.08163 17.1347 4.31814 16.868L7.61747 13.1354C7.98407 12.7222 7.7239 12.0023 7.19175 12.0023H5.07498C5.07498 6.80333 8.83551 2.60415 13.4711 2.6708C17.8702 2.73746 21.5716 6.90998 21.6308 11.869C21.6899 17.0813 17.9648 21.3339 13.3529 21.3339C11.449 21.3339 9.68695 20.6007 8.29153 19.3609C7.81851 18.9476 7.15628 18.9876 6.73056 19.4675C6.23388 20.0274 6.26936 20.9739 6.82516 21.4538C8.62265 23.0535 10.8813 24 13.3529 24C19.3248 24 24.1614 18.4411 23.9959 11.6557C23.8421 5.40361 19.2065 0.177952 13.6603 0.00465262ZM13.0572 6.67003C12.5724 6.67003 12.1703 7.12327 12.1703 7.66983V12.5755C12.1703 13.0421 12.395 13.482 12.7498 13.722L16.4393 16.1882C16.8651 16.4681 17.409 16.3082 17.6574 15.8416C17.9057 15.3617 17.7638 14.7485 17.3499 14.4685L13.9441 12.189V7.6565C13.9441 7.12327 13.5421 6.67003 13.0572 6.67003Z" fill="#1D1CE5"/>
</svg>
