<svg width="16" height="16" viewBox="0 0 16 16" fill="none" xmlns="http://www.w3.org/2000/svg">
<path d="M15.1156 11.6486C15.6959 10.5199 15.999 9.26913 16 7.99994C16 3.58906 12.4109 0 8 0C3.58909 0 0 3.58906 0 7.99994C0 12.4108 3.58909 15.9999 8 15.9999C9.26691 15.9999 10.5222 15.6952 11.6495 15.1162L15.0967 15.9781C15.2185 16.0087 15.3461 16.0072 15.4671 15.9737C15.5881 15.9402 15.6983 15.8758 15.7869 15.7868C15.8758 15.698 15.9401 15.5876 15.9736 15.4665C16.0071 15.3455 16.0087 15.2178 15.9782 15.0959L15.1156 11.6486ZM13.6371 11.7286L14.2727 14.2726L11.7287 13.6363C11.5489 13.5919 11.3589 13.6173 11.1971 13.7075C10.2207 14.256 9.11986 14.5445 8 14.5453C4.39055 14.5453 1.45455 11.6086 1.45455 7.99994C1.45455 4.39124 4.39055 1.45453 8 1.45453C11.6095 1.45453 14.5455 4.39124 14.5455 7.99994C14.5445 9.11945 14.2562 10.22 13.7084 11.1963C13.6172 11.358 13.5917 11.5486 13.6371 11.7286Z" fill="#231F20"/>
</svg>
