<svg width="20" height="20" viewBox="0 0 20 20" fill="none" xmlns="http://www.w3.org/2000/svg">
<path d="M9.40678 0C6.69109 0.00731219 4.08209 0.998914 2.11864 2.77V1C2.11864 0.734784 2.00704 0.48043 1.80838 0.292893C1.60971 0.105357 1.34027 0 1.05932 0C0.778372 0 0.50893 0.105357 0.310268 0.292893C0.111607 0.48043 0 0.734784 0 1V5.5C0 5.76522 0.111607 6.01957 0.310268 6.20711C0.50893 6.39464 0.778372 6.5 1.05932 6.5H5.82627C6.10722 6.5 6.37666 6.39464 6.57533 6.20711C6.77399 6.01957 6.88559 5.76522 6.88559 5.5C6.88559 5.23478 6.77399 4.98043 6.57533 4.79289C6.37666 4.60536 6.10722 4.5 5.82627 4.5H3.2839C4.24969 3.53701 5.45392 2.81576 6.78827 2.40114C8.12262 1.98651 9.54522 1.89152 10.9281 2.1247C12.311 2.35788 13.6108 2.91193 14.7106 3.73699C15.8103 4.56205 16.6756 5.63226 17.2285 6.85133C17.7814 8.0704 18.0046 9.4001 17.8781 10.7208C17.7515 12.0415 17.2791 13.3118 16.5034 14.4174C15.7278 15.5231 14.6731 16.4293 13.4343 17.0547C12.1956 17.68 10.8115 18.0049 9.40678 18C9.12583 18 8.85639 18.1054 8.65773 18.2929C8.45906 18.4804 8.34746 18.7348 8.34746 19C8.34746 19.2652 8.45906 19.5196 8.65773 19.7071C8.85639 19.8946 9.12583 20 9.40678 20C12.2163 20 14.9107 18.9464 16.8973 17.0711C18.8839 15.1957 20 12.6522 20 10C20 7.34784 18.8839 4.8043 16.8973 2.92893C14.9107 1.05357 12.2163 0 9.40678 0ZM9.40678 6C9.12583 6 8.85639 6.10536 8.65773 6.29289C8.45906 6.48043 8.34746 6.73478 8.34746 7V10C8.34746 10.2652 8.45906 10.5196 8.65773 10.7071C8.85639 10.8946 9.12583 11 9.40678 11H11.5254C11.8064 11 12.0758 10.8946 12.2745 10.7071C12.4731 10.5196 12.5847 10.2652 12.5847 10C12.5847 9.73478 12.4731 9.48043 12.2745 9.29289C12.0758 9.10536 11.8064 9 11.5254 9H10.4661V7C10.4661 6.73478 10.3545 6.48043 10.1558 6.29289C9.95717 6.10536 9.68773 6 9.40678 6Z" fill="black"/>
</svg>
