<svg width="24" height="24" viewBox="0 0 24 24" fill="none" xmlns="http://www.w3.org/2000/svg">
<path d="M23.3716 15.8483L20.9692 13.6764V8.32473C21.0011 6.33744 20.2322 4.40686 18.8045 2.88947C17.3767 1.37207 15.3864 0.370336 13.2012 0.0692322C11.933 -0.0809182 10.6438 0.0138134 9.4195 0.347106C8.19524 0.680399 7.06411 1.24459 6.1016 2.00203C5.13909 2.75947 4.36732 3.69275 3.8378 4.73958C3.30827 5.78642 3.03316 6.92275 3.03083 8.07275V13.6764L0.62837 15.8483C0.326603 16.1241 0.121964 16.4738 0.0400356 16.8536C-0.0418925 17.2334 0.00252527 17.6265 0.167736 17.9837C0.332947 18.341 0.61162 18.6465 0.96892 18.8621C1.32622 19.0777 1.74629 19.1939 2.17662 19.1961H6.66121V19.6041C6.72355 20.8222 7.32048 21.9685 8.32121 22.7917C9.32193 23.6149 10.6448 24.0479 12 23.9958C13.3552 24.0479 14.6781 23.6149 15.6788 22.7917C16.6795 21.9685 17.2764 20.8222 17.3388 19.6041V19.1961H21.8234C22.2537 19.1939 22.6738 19.0777 23.0311 18.8621C23.3884 18.6465 23.6671 18.341 23.8323 17.9837C23.9975 17.6265 24.0419 17.2334 23.96 16.8536C23.878 16.4738 23.6734 16.1241 23.3716 15.8483ZM14.6694 19.6041C14.5954 20.1812 14.2765 20.7105 13.7792 21.0815C13.282 21.4526 12.6446 21.6368 12 21.5959C11.3554 21.6368 10.718 21.4526 10.2208 21.0815C9.72348 20.7105 9.40462 20.1812 9.3306 19.6041V19.1961H14.6694V19.6041ZM3.33781 16.7962L4.91275 15.3803C5.16257 15.1571 5.36076 14.8916 5.49591 14.5991C5.63106 14.3067 5.7005 13.9931 5.70022 13.6764V8.07275C5.70095 7.26328 5.89427 6.46331 6.2672 5.72654C6.64012 4.98977 7.18404 4.33324 7.86243 3.80101C8.53168 3.25586 9.3247 2.84796 10.1866 2.60556C11.0485 2.36315 11.9587 2.29202 12.8542 2.39709C14.3978 2.62241 15.7988 3.34145 16.7994 4.42182C17.8 5.5022 18.3329 6.87119 18.2998 8.27674V13.6764C18.2977 13.9922 18.3651 14.3053 18.4979 14.5977C18.6308 14.8901 18.8265 15.1561 19.0739 15.3803L20.6622 16.7962H3.33781Z" fill="#1D1CE5"/>
</svg>
