<svg width="21" height="20" viewBox="0 0 21 20" fill="none" xmlns="http://www.w3.org/2000/svg">
<path d="M18.5155 7.32509H16.7443V4.87076C16.686 3.56401 15.9601 2.32556 14.7199 1.41678C13.4796 0.507999 11.822 0 10.0969 0C8.37176 0 6.71415 0.507999 5.47388 1.41678C4.2336 2.32556 3.50771 3.56401 3.44939 4.87076V7.32509H1.67826C1.46804 7.32506 1.25993 7.3568 1.06609 7.41846C0.872252 7.48012 0.696584 7.57045 0.54936 7.68418C0.402137 7.79791 0.286315 7.93275 0.208669 8.08082C0.131023 8.22888 0.0931126 8.38719 0.0971552 8.54649V18.7901C0.0951464 18.9485 0.13456 19.1055 0.213118 19.2523C0.291676 19.399 0.40782 19.5324 0.55484 19.6449C0.701859 19.7574 0.876838 19.8467 1.06966 19.9077C1.26249 19.9686 1.46934 20 1.67826 20H18.5155C18.9348 20 19.337 19.8737 19.6335 19.649C19.93 19.4243 20.0966 19.1195 20.0966 18.8016V8.54649C20.1006 8.38719 20.0627 8.22888 19.9851 8.08082C19.9074 7.93275 19.7916 7.79791 19.6444 7.68418C19.4971 7.57045 19.3215 7.48012 19.1276 7.41846C18.9338 7.3568 18.7257 7.32506 18.5155 7.32509ZM5.66902 4.87076C5.66902 4.42929 5.78374 3.99215 6.00665 3.58428C6.22955 3.17642 6.55626 2.80582 6.96813 2.49366C7.38 2.18149 7.86896 1.93387 8.40709 1.76492C8.94523 1.59598 9.52199 1.50903 10.1045 1.50903C10.6869 1.50903 11.2637 1.59598 11.8018 1.76492C12.34 1.93387 12.8289 2.18149 13.2408 2.49366C13.6527 2.80582 13.9794 3.17642 14.2023 3.58428C14.4252 3.99215 14.5399 4.42929 14.5399 4.87076V7.32509H5.66902V4.87076ZM17.9454 18.358H2.24837V8.97859H17.9454V18.358Z" fill="#BFBFBF"/>
</svg>
