<svg width="20" height="20" viewBox="0 0 20 20" fill="none" xmlns="http://www.w3.org/2000/svg">
<path d="M19.2857 0H5C4.81056 0 4.62888 0.0752548 4.49492 0.209209C4.36097 0.343164 4.28571 0.524845 4.28571 0.714285V7.14285H0.714286C0.524845 7.14285 0.343164 7.2181 0.209209 7.35206C0.0752549 7.48601 0 7.66769 0 7.85713V19.2857H0.0050715C0.00364028 19.3795 0.0209694 19.4726 0.0560403 19.5595C0.0911112 19.6465 0.143216 19.7256 0.209292 19.7922C0.275367 19.8587 0.35408 19.9114 0.440803 19.9471C0.527526 19.9827 0.620509 20.0007 0.714286 20H12.1429C12.2856 19.9999 12.4251 19.9571 12.5434 19.877C12.6616 19.7969 12.7531 19.6833 12.8062 19.5508L13.198 18.5714H19.2857C19.4752 18.5714 19.6568 18.4962 19.7908 18.3622C19.9247 18.2282 20 18.0466 20 17.8571V0.714285C20 0.524845 19.9247 0.343164 19.7908 0.209209C19.6568 0.0752548 19.4752 0 19.2857 0ZM5.4185 8.57142L6.63779 9.7907C6.70411 9.85704 6.78285 9.90967 6.86951 9.94558C6.95617 9.98149 7.04905 9.99998 7.14286 9.99999H11.4286V11.4286H3.57143C3.42864 11.4286 3.28915 11.4715 3.17093 11.5515C3.0527 11.6316 2.96115 11.7452 2.90807 11.8778L1.42857 15.5765V8.57142H5.4185ZM11.6591 18.5714H1.76936L4.05507 12.8571H13.9449L11.6591 18.5714ZM18.5714 17.1428H13.7694L15.6634 12.4079C15.7067 12.2995 15.7228 12.1822 15.7103 12.0661C15.6978 11.9501 15.657 11.8389 15.5915 11.7422C15.5261 11.6456 15.4379 11.5665 15.3348 11.5118C15.2317 11.4571 15.1167 11.4285 15 11.4286H12.8571V9.2857C12.8571 9.09626 12.7819 8.91458 12.6479 8.78063C12.514 8.64667 12.3323 8.57142 12.1429 8.57142H7.43864L6.21936 7.35213C6.15304 7.28579 6.0743 7.23317 5.98764 7.19726C5.90098 7.16135 5.80809 7.14286 5.71429 7.14285V1.42857H18.5714V17.1428Z" fill="black"/>
<path d="M16.4285 2.85712H7.85712V4.28569H16.4285V2.85712Z" fill="black"/>
<path d="M16.4285 5.71429H7.85712V7.14286H16.4285V5.71429Z" fill="black"/>
<path d="M16.4286 8.57141H14.2857V9.99998H16.4286V8.57141Z" fill="black"/>
</svg>
