<svg width="10" height="13" viewBox="0 0 10 13" fill="none" xmlns="http://www.w3.org/2000/svg">
<path d="M7.85714 0H2.14286C1.57454 0 1.0295 0.205405 0.627633 0.571028C0.22577 0.936652 5.63065e-06 1.43254 5.63065e-06 1.94961V12.3475C-0.00049406 12.4621 0.0322732 12.5747 0.0949898 12.6739C0.157706 12.7732 0.248145 12.8557 0.357148 12.9129C0.465733 12.97 0.588907 13 0.71429 13C0.839674 13 0.962848 12.97 1.07143 12.9129L5 10.8463L8.92857 12.9129C9.03743 12.9691 9.16058 12.9982 9.28571 12.9974C9.41084 12.9982 9.53399 12.9691 9.64285 12.9129C9.75185 12.8557 9.84229 12.7732 9.90501 12.6739C9.96773 12.5747 10.0005 12.4621 9.99999 12.3475V1.94961C9.99999 1.43254 9.77423 0.936652 9.37237 0.571028C8.9705 0.205405 8.42546 0 7.85714 0ZM8.57142 11.2233L5.35714 9.5336C5.24856 9.47657 5.12538 9.44654 5 9.44654C4.87462 9.44654 4.75144 9.47657 4.64286 9.5336L1.42858 11.2233V1.94961C1.42858 1.77726 1.50383 1.61196 1.63778 1.49008C1.77174 1.36821 1.95342 1.29974 2.14286 1.29974H7.85714C8.04658 1.29974 8.22826 1.36821 8.36222 1.49008C8.49617 1.61196 8.57142 1.77726 8.57142 1.94961V11.2233Z" fill="black"/>
</svg>
