<svg width="24" height="24" viewBox="0 0 24 24" fill="none" xmlns="http://www.w3.org/2000/svg">
<path d="M12.5649 23.86C13.5101 23.32 14.4582 22.7825 15.4034 22.2425C15.8313 21.9988 16.2647 21.7577 16.6814 21.4965C17.6714 20.876 18.5999 20.1702 19.4248 19.3765C21.058 17.8016 22.2997 15.9354 23.0855 13.9033C23.7259 12.243 24 10.4923 24 8.73907V5.39588C24 4.94627 23.6504 4.55443 23.1778 4.42633C22.8366 4.3334 22.4983 4.23795 22.1711 4.11487C22.2605 4.14752 22.35 4.18269 22.4395 4.21534C21.855 3.99179 21.3069 3.70545 20.8035 3.35882L21.0301 3.51706C20.5323 3.17044 20.0848 2.77106 19.6989 2.32396L19.8751 2.52742C19.4892 2.0753 19.1676 1.58047 18.9187 1.05551C18.955 1.13589 18.9942 1.21626 19.0305 1.29664C18.9466 1.11579 18.8683 0.92992 18.8012 0.744048C18.6502 0.319555 18.2279 0.00558175 17.7217 0.00558175H7.68492C7.22349 0.00558175 6.75926 -0.00697719 6.29783 0.00558175H6.27826C5.76928 0.00558175 5.3498 0.319555 5.19879 0.744048C5.13167 0.932432 5.05616 1.11579 4.96947 1.29664C5.00583 1.21626 5.04498 1.13589 5.08133 1.05551C4.83244 1.58047 4.51084 2.07278 4.12491 2.52742L4.3011 2.32396C3.91517 2.77106 3.46772 3.17044 2.96994 3.51706L3.19646 3.35882C2.69308 3.70545 2.14216 3.99179 1.56048 4.21534C1.64996 4.18269 1.73945 4.14752 1.82894 4.11487C1.49895 4.23795 1.16337 4.3334 0.822186 4.42633C0.349569 4.55443 0 4.94627 0 5.39588V8.4251C0 8.9576 0 9.4901 0.0419483 10.0226C0.131438 11.1052 0.335586 12.1853 0.673969 13.2276C1.34514 15.2974 2.50851 17.2038 4.0522 18.849C5.25192 20.1275 6.69774 21.1624 8.26381 22.0541L11.3596 23.8173C11.3848 23.8324 11.4127 23.8475 11.4379 23.8626C11.9329 24.1439 12.6935 23.9706 12.9676 23.5009C13.2584 23.0035 13.0935 22.4283 12.5649 22.1269C12.0615 21.8406 11.5581 21.5542 11.0576 21.2679C10.4144 20.9012 9.77395 20.537 9.13074 20.1702C8.68049 19.914 8.24144 19.6402 7.81636 19.3489L8.04288 19.5071C6.98578 18.7712 6.03496 17.9172 5.21557 16.9677L5.39175 17.1712C4.55838 16.1991 3.86483 15.1341 3.33069 14.0038C3.36705 14.0842 3.4062 14.1645 3.44255 14.2449C2.89723 13.082 2.52529 11.8612 2.33792 10.6104C2.3519 10.6983 2.36588 10.7887 2.37707 10.8766C2.25682 10.0628 2.23724 9.24897 2.23724 8.43264V5.40593C1.96318 5.72995 1.68912 6.05146 1.41505 6.37548C2.37986 6.11425 3.31391 5.76763 4.1333 5.23764C5.10371 4.60969 5.93148 3.83606 6.54673 2.91172C6.88511 2.40434 7.15637 1.85175 7.35773 1.28911C6.99697 1.53526 6.63901 1.78142 6.27826 2.02757H16.3151C16.7765 2.02757 17.2407 2.03762 17.7022 2.02757H17.7217C17.361 1.78142 17.003 1.53526 16.6423 1.28911C17.3442 3.25584 18.9382 4.96637 21.0301 5.85052C21.5334 6.06402 22.0508 6.2298 22.5849 6.37548C22.3109 6.05146 22.0368 5.72995 21.7628 5.40593V8.96765C21.7628 9.60564 21.7152 10.2436 21.6229 10.8766C21.6369 10.7887 21.6509 10.6983 21.6621 10.6104C21.4719 11.8587 21.1 13.082 20.5574 14.2449C20.5938 14.1645 20.633 14.0842 20.6693 14.0038C20.1352 15.1341 19.4416 16.1991 18.6082 17.1712L18.7844 16.9677C17.965 17.9172 17.0142 18.7712 15.9571 19.5071L16.1836 19.3489C15.5572 19.7834 14.8916 20.1577 14.2261 20.5395C13.4878 20.9614 12.7495 21.3809 12.0112 21.8029C11.821 21.9109 11.6281 22.0214 11.4379 22.1294C11.1946 22.2676 11.0016 22.4761 10.9233 22.7297C10.8506 22.9709 10.8842 23.2899 11.0352 23.5034C11.354 23.9454 12.0364 24.1615 12.5649 23.86Z" fill="#1D1CE5"/>
<path d="M6.30043 11.9516L9.17249 14.5312L9.58078 14.898C10.0087 15.2823 10.7358 15.2823 11.1636 14.898L13.3813 12.9061L16.891 9.75381L17.6992 9.0279C18.1131 8.65616 18.1438 7.97295 17.6992 7.60623C17.2517 7.23699 16.5582 7.20936 16.1163 7.60623L13.8987 9.59808L10.389 12.7504L9.58078 13.4763H11.1636L8.29157 10.8967L7.88328 10.5299C7.46939 10.1582 6.70872 10.1306 6.30043 10.5299C5.88934 10.9318 5.85857 11.5522 6.30043 11.9516Z" fill="#1D1CE5"/>
</svg>
