<svg width="11" height="15" viewBox="0 0 11 15" fill="none" xmlns="http://www.w3.org/2000/svg">
<path d="M8.83333 10.6024C8.41111 10.6024 8.03333 10.8283 7.74445 11.1822L3.78333 8.05723C3.81111 7.88404 3.83333 7.71084 3.83333 7.53012C3.83333 7.3494 3.81111 7.17621 3.78333 7.00301L7.7 3.90813C8 4.28464 8.39444 4.51807 8.83333 4.51807C9.75556 4.51807 10.5 3.50904 10.5 2.25904C10.5 1.00904 9.75556 0 8.83333 0C7.91111 0 7.16667 1.00904 7.16667 2.25904C7.16667 2.43976 7.18889 2.61295 7.21667 2.78614L3.3 5.88102C3 5.50452 2.60556 5.27108 2.16667 5.27108C1.24444 5.27108 0.5 6.28012 0.5 7.53012C0.5 8.78012 1.24444 9.78916 2.16667 9.78916C2.60556 9.78916 3 9.55572 3.3 9.17922L7.25556 12.3117C7.22778 12.4699 7.21111 12.6355 7.21111 12.8012C7.21111 14.0136 7.93889 15 8.83333 15C9.72778 15 10.4556 14.0136 10.4556 12.8012C10.4556 11.5889 9.72778 10.6024 8.83333 10.6024Z" fill="black"/>
</svg>
