<svg width="8" height="9" viewBox="0 0 8 9" fill="none" xmlns="http://www.w3.org/2000/svg">
<rect y="0.5" width="8" height="8" rx="4" fill="#4649FF"/>
<path d="M4.3648 2.592L4.2848 4.508H3.7048L3.6248 2.592H4.3648ZM4.0048 5.532C3.8848 5.532 3.78613 5.49733 3.7088 5.428C3.63413 5.356 3.5968 5.268 3.5968 5.164C3.5968 5.05733 3.63413 4.968 3.7088 4.896C3.78613 4.824 3.8848 4.788 4.0048 4.788C4.12213 4.788 4.21813 4.824 4.2928 4.896C4.37013 4.968 4.4088 5.05733 4.4088 5.164C4.4088 5.268 4.37013 5.356 4.2928 5.428C4.21813 5.49733 4.12213 5.532 4.0048 5.532Z" fill="white"/>
</svg>
