<svg width="20" height="24" viewBox="0 0 20 24" fill="none" xmlns="http://www.w3.org/2000/svg">
<path d="M13.75 16.8H6.25C5.91848 16.8 5.60054 16.9264 5.36612 17.1515C5.1317 17.3765 5 17.6817 5 18C5 18.3183 5.1317 18.6235 5.36612 18.8485C5.60054 19.0736 5.91848 19.2 6.25 19.2H13.75C14.0815 19.2 14.3995 19.0736 14.6339 18.8485C14.8683 18.6235 15 18.3183 15 18C15 17.6817 14.8683 17.3765 14.6339 17.1515C14.3995 16.9264 14.0815 16.8 13.75 16.8ZM6.25 9.6H7.5C7.83152 9.6 8.14946 9.47357 8.38388 9.24853C8.6183 9.02348 8.75 8.71826 8.75 8.4C8.75 8.08174 8.6183 7.77652 8.38388 7.55147C8.14946 7.32643 7.83152 7.2 7.5 7.2H6.25C5.91848 7.2 5.60054 7.32643 5.36612 7.55147C5.1317 7.77652 5 8.08174 5 8.4C5 8.71826 5.1317 9.02348 5.36612 9.24853C5.60054 9.47357 5.91848 9.6 6.25 9.6ZM13.75 12H6.25C5.91848 12 5.60054 12.1264 5.36612 12.3515C5.1317 12.5765 5 12.8817 5 13.2C5 13.5183 5.1317 13.8235 5.36612 14.0485C5.60054 14.2736 5.91848 14.4 6.25 14.4H13.75C14.0815 14.4 14.3995 14.2736 14.6339 14.0485C14.8683 13.8235 15 13.5183 15 13.2C15 12.8817 14.8683 12.5765 14.6339 12.3515C14.3995 12.1264 14.0815 12 13.75 12ZM19.6375 15.948C19.5186 15.8388 19.3784 15.7531 19.225 15.696C19.0758 15.631 18.9138 15.5974 18.75 15.5974C18.5862 15.5974 18.4242 15.631 18.275 15.696C18.1216 15.7531 17.9814 15.8388 17.8625 15.948C17.7521 16.0646 17.6633 16.1986 17.6 16.344C17.5043 16.5625 17.4781 16.8034 17.5248 17.0362C17.5716 17.269 17.6891 17.4833 17.8625 17.652C17.9793 17.7632 18.1178 17.8512 18.2701 17.9109C18.4224 17.9706 18.5855 18.0009 18.75 18C18.9133 17.9981 19.0747 17.9655 19.225 17.904C19.3765 17.8432 19.516 17.758 19.6375 17.652C19.8109 17.4833 19.9284 17.269 19.9752 17.0362C20.0219 16.8034 19.9957 16.5625 19.9 16.344C19.8367 16.1986 19.7479 16.0646 19.6375 15.948ZM20 8.328C19.987 8.21776 19.9618 8.10916 19.925 8.004V7.896C19.8649 7.77262 19.7847 7.6592 19.6875 7.56L12.1875 0.36C12.0842 0.266659 11.966 0.189697 11.8375 0.132C11.8002 0.126912 11.7623 0.126912 11.725 0.132C11.598 0.0620895 11.4578 0.017213 11.3125 0H3.75C2.75544 0 1.80161 0.379285 1.09835 1.05442C0.395088 1.72955 0 2.64522 0 3.6V20.4C0 21.3548 0.395088 22.2705 1.09835 22.9456C1.80161 23.6207 2.75544 24 3.75 24H13.75C14.0815 24 14.3995 23.8736 14.6339 23.6485C14.8683 23.4235 15 23.1183 15 22.8C15 22.4817 14.8683 22.1765 14.6339 21.9515C14.3995 21.7264 14.0815 21.6 13.75 21.6H3.75C3.41848 21.6 3.10054 21.4736 2.86612 21.2485C2.6317 21.0235 2.5 20.7183 2.5 20.4V3.6C2.5 3.28174 2.6317 2.97652 2.86612 2.75147C3.10054 2.52643 3.41848 2.4 3.75 2.4H10V6C10 6.95478 10.3951 7.87045 11.0983 8.54559C11.8016 9.22072 12.7554 9.6 13.75 9.6H17.5V12C17.5 12.3183 17.6317 12.6235 17.8661 12.8485C18.1005 13.0736 18.4185 13.2 18.75 13.2C19.0815 13.2 19.3995 13.0736 19.6339 12.8485C19.8683 12.6235 20 12.3183 20 12V8.4C20 8.4 20 8.4 20 8.328ZM13.75 7.2C13.4185 7.2 13.1005 7.07357 12.8661 6.84853C12.6317 6.62348 12.5 6.31826 12.5 6V4.092L15.7375 7.2H13.75ZM18.75 19.2C18.4185 19.2 18.1005 19.3264 17.8661 19.5515C17.6317 19.7765 17.5 20.0817 17.5 20.4V22.8C17.5 23.1183 17.6317 23.4235 17.8661 23.6485C18.1005 23.8736 18.4185 24 18.75 24C19.0815 24 19.3995 23.8736 19.6339 23.6485C19.8683 23.4235 20 23.1183 20 22.8V20.4C20 20.0817 19.8683 19.7765 19.6339 19.5515C19.3995 19.3264 19.0815 19.2 18.75 19.2Z" fill="#1D1CE5"/>
</svg>
