<svg width="16" height="16" viewBox="0 0 16 16" fill="none" xmlns="http://www.w3.org/2000/svg">
<path d="M15.4413 6.46402C15.2165 6.19414 14.9352 5.97689 14.6173 5.8276C14.2993 5.67831 13.9524 5.60062 13.6012 5.60002H9.95286L10.4009 4.45603C10.5873 3.95513 10.6493 3.41651 10.5818 2.88637C10.5142 2.35622 10.319 1.85037 10.013 1.41222C9.70699 0.974059 9.29923 0.616672 8.82472 0.370709C8.35021 0.124747 7.82311 -0.00244754 7.28863 3.56729e-05C7.13473 0.000356762 6.98419 0.0450558 6.85505 0.128774C6.72592 0.212491 6.62367 0.331675 6.56057 0.472035L4.28037 5.60002H2.40021C1.76363 5.60002 1.15313 5.85288 0.703005 6.30297C0.252878 6.75305 0 7.3635 0 8.00002V13.6C0 14.2365 0.252878 14.847 0.703005 15.2971C1.15313 15.7471 1.76363 16 2.40021 16H12.5851C13.1466 15.9998 13.6903 15.8028 14.1215 15.4432C14.5527 15.0836 14.8442 14.5843 14.9453 14.032L15.9614 8.43202C16.0242 8.08592 16.0102 7.73024 15.9204 7.39016C15.8305 7.05008 15.667 6.7339 15.4413 6.46402ZM4.00035 14.4H2.40021C2.18802 14.4 1.98452 14.3157 1.83447 14.1657C1.68443 14.0157 1.60014 13.8122 1.60014 13.6V8.00002C1.60014 7.78785 1.68443 7.58436 1.83447 7.43433C1.98452 7.28431 2.18802 7.20002 2.40021 7.20002H4.00035V14.4ZM14.4013 8.14402L13.3852 13.744C13.3511 13.9304 13.252 14.0986 13.1055 14.2187C12.9589 14.3389 12.7745 14.4031 12.5851 14.4H5.60049V6.56802L7.77668 1.67203C8.00068 1.73733 8.20872 1.84836 8.38766 1.9981C8.56659 2.14784 8.71254 2.33304 8.81629 2.54202C8.92003 2.751 8.97933 2.97922 8.99043 3.21227C9.00153 3.44532 8.96419 3.67813 8.88077 3.89603L8.45673 5.04002C8.36638 5.28183 8.33588 5.5419 8.36783 5.79805C8.39978 6.05419 8.49323 6.29881 8.64022 6.51101C8.7872 6.72322 8.98335 6.89671 9.21193 7.01669C9.4405 7.13667 9.69471 7.19957 9.95286 7.20002H13.6012C13.7187 7.19983 13.8349 7.22554 13.9413 7.27531C14.0478 7.32509 14.142 7.39771 14.2172 7.48802C14.2943 7.57708 14.3508 7.68205 14.3826 7.79545C14.4144 7.90885 14.4208 8.02787 14.4013 8.14402Z" fill="black"/>
</svg>
