<svg width="24" height="20" viewBox="0 0 24 20" fill="none" xmlns="http://www.w3.org/2000/svg">
<path d="M2.78613 15.9091C2.78613 16.1487 2.97582 16.3396 3.21444 16.3568V16.5909C3.21444 16.7164 3.31782 16.8182 3.44521 16.8182C3.57259 16.8182 3.67598 16.7164 3.67598 16.5909V16.3637H4.59906V16.5909C4.59906 16.7164 4.70244 16.8182 4.82983 16.8182C4.95721 16.8182 5.06059 16.7164 5.06059 16.5909V16.3637H5.98367C7.00183 16.3637 7.82983 15.5482 7.82983 14.5455C7.82983 13.7527 7.30921 13.0846 6.58921 12.8359C6.78952 12.5455 6.90675 12.195 6.90675 11.8182C6.90675 10.8155 6.07875 10 5.06059 10V9.77274C5.06059 9.64729 4.95721 9.54547 4.82983 9.54547C4.70244 9.54547 4.59906 9.64729 4.59906 9.77274V10H3.67598V9.77274C3.67598 9.64729 3.57259 9.54547 3.44521 9.54547C3.31782 9.54547 3.21444 9.64729 3.21444 9.77274V10.0068C2.97582 10.0246 2.78613 10.2155 2.78613 10.4546C2.78613 10.6832 2.95783 10.8727 3.18121 10.9046V15.4591C2.95783 15.4909 2.78613 15.6805 2.78613 15.9091ZM6.90675 14.5455C6.90675 15.0468 6.49275 15.4546 5.98367 15.4546H4.13752V13.6364H5.06059H5.98367C6.49229 13.6364 6.90675 14.0441 6.90675 14.5455ZM5.98367 11.8182C5.98367 12.3196 5.56967 12.7273 5.06059 12.7273H4.13752V10.9091H5.06059C5.56921 10.9091 5.98367 11.3168 5.98367 11.8182Z" fill="#1D1CE5"/>
<path d="M21.2308 4.54545H19.8462V2.27273C19.8462 1.01955 18.8109 0 17.5385 0H2.76923C1.242 0 0 1.22318 0 2.72727V17.7273C0 18.9805 1.03523 20 2.30769 20H21.6923C22.9648 20 24 18.9805 24 17.7273V15.9091V11.8182V7.27273C24 5.76864 22.758 4.54545 21.2308 4.54545ZM23.0769 7.27273V11.3636H22.1594V7.95727C22.1594 7.08 21.4348 6.36636 20.544 6.36636H2.31323C1.71877 6.36636 1.20369 6.04455 0.923077 5.57182V4.75455C1.41369 5.18818 2.05938 5.45455 2.76923 5.45455H16.6154H19.3846H21.2308C22.2489 5.45455 23.0769 6.27 23.0769 7.27273ZM23.0769 15.4545H19.6154C18.7246 15.4545 18 14.7409 18 13.8636C18 12.9864 18.7246 12.2727 19.6154 12.2727H23.0769V15.4545ZM0.923077 6.28455C1.29185 6.61455 1.77692 6.82091 2.31323 6.82091H20.544C21.1805 6.82091 21.6978 7.33091 21.6978 7.95727V11.3636H19.6154C18.216 11.3636 17.0769 12.485 17.0769 13.8636C17.0769 15.2423 18.216 16.3636 19.6154 16.3636H21.6729L21.6692 17.0623C21.6692 17.4382 21.3586 17.7441 20.9774 17.7441L2.30769 17.7273C1.71692 17.7273 1.20462 17.41 0.923077 16.9427V6.28455ZM17.5385 4.54545H16.6154H2.76923C2.60908 4.54545 2.45631 4.51909 2.30769 4.48091V2.95455C2.30769 2.57864 2.61831 2.27273 3 2.27273H16.8462C17.2278 2.27273 17.5385 2.57864 17.5385 2.95455V4.54545ZM2.76923 0.909091H17.5385C18.3018 0.909091 18.9231 1.52091 18.9231 2.27273V4.54545H18V2.95455C18 2.32818 17.4826 1.81818 16.8462 1.81818H3C2.36354 1.81818 1.84615 2.32818 1.84615 2.95455V4.29273C1.29692 3.97727 0.923077 3.39727 0.923077 2.72727C0.923077 1.72455 1.75108 0.909091 2.76923 0.909091ZM21.6923 19.0909H2.30769C1.54431 19.0909 0.923077 18.4791 0.923077 17.7273V17.65C1.29138 17.9768 1.77369 18.1818 2.30769 18.1818L20.9765 18.1986C21.6129 18.1986 22.1303 17.6886 22.1303 17.0636L22.1345 16.3636H23.0769V17.7273C23.0769 18.4791 22.4557 19.0909 21.6923 19.0909Z" fill="#1D1CE5"/>
<path d="M18.9229 13.8636C18.9229 14.2396 19.2335 14.5455 19.6152 14.5455C19.9969 14.5455 20.3075 14.2396 20.3075 13.8636C20.3075 13.4877 19.9969 13.1818 19.6152 13.1818C19.2335 13.1818 18.9229 13.4877 18.9229 13.8636ZM19.8459 13.8636C19.8459 13.9891 19.7421 14.0909 19.6152 14.0909C19.4882 14.0909 19.3844 13.9891 19.3844 13.8636C19.3844 13.7382 19.4882 13.6364 19.6152 13.6364C19.7421 13.6364 19.8459 13.7382 19.8459 13.8636Z" fill="#1D1CE5"/>
</svg>
